<?xml version="1.0" encoding="utf-8"?>
<!-- Generator: Adobe Illustrator 26.1.0, SVG Export Plug-In . SVG Version: 6.00 Build 0)  -->
<svg version="1.1" id="Слой_1" xmlns="http://www.w3.org/2000/svg" xmlns:xlink="http://www.w3.org/1999/xlink" x="0px" y="0px"
	 viewBox="0 0 800 800" style="enable-background:new 0 0 800 800;" xml:space="preserve">
<style type="text/css">
	.st0{fill:#FFFFFF;stroke:#000000;stroke-width:25;stroke-miterlimit:10;}
	.st1{stroke:#000000;stroke-miterlimit:10;}
	.st2{fill:#FFFFFF;stroke:#000000;stroke-width:5;stroke-miterlimit:10;}
</style>
<circle class="st0" cx="400" cy="400" r="385"/>
<circle class="st1" cx="400" cy="400" r="350"/>
<g>
	<path class="st2" d="M521.94,681.69h-15.81c-14.64,0-26.5-10.74-26.5-24c1.42-40.17,2.84-80.35,4.26-120.52c19.75,0,39.5,0,59.25,0
		c1.76,40.17,3.53,80.35,5.29,120.52C548.44,670.95,536.58,681.69,521.94,681.69z"/>
	<path class="st2" d="M556.09,514.94H451.11c2.07-58.04,9.39-133.62,30.44-214.54c20.29-77.98,44.52-127.02,51.22-140.25
		c8.88-17.53,17.14-31.73,23.32-41.85C556.09,250.52,556.09,382.73,556.09,514.94z"/>
</g>
<g>
	<path class="st2" d="M319.85,681.69c-30.89,0-30.89-24.8-30.89-55.39c1.28-92.73,2.55-185.47,3.83-278.2c17.73,0,35.47,0,53.2,0
		l0,0c-0.5,139.86,4.75,238.62,4.75,278.2C350.74,656.89,350.74,681.69,319.85,681.69z"/>
	<g>
		<path class="st2" d="M319.85,128.25c5.65,0,15.09,22.69,26.28,163.97c-8.76-9.34-17.52-18.67-26.28-28.01l-26.28,28.01
			C304.76,150.94,314.2,128.25,319.85,128.25z"/>
		<path class="st2" d="M292.69,317.96c14.47,8.01,37.44,12.58,44.69-0.06c7.86-13.7-5.21-43.3-17.54-56.26
			c-5.5-5.78-11.53-8.96-12.09-9.24c-9.04-4.67-16.64-3.87-19.7-4.37c-23.76-3.91-21.7-119.04-28.9-119.78
			c-4.98-0.51-23.65,52.84-10.83,113.88C252.65,262.72,262.02,300.98,292.69,317.96z"/>
		<path class="st2" d="M347.01,317.96c-14.76,8.17-37.76,12.18-44.69-0.06c-8.7-15.36,9.88-50.63,22.32-60.7
			c3.51-2.84,7.31-4.8,7.31-4.8c4.02-2.51,6.26-3.35,19.7-4.37c15.27-1.15,20.86-119.01,28.9-119.78
			c3.65-0.35,9.4,23.23,12.08,42.67c2.38,17.27,5.35,41.32-1.25,71.21C388.46,255.29,378.47,300.54,347.01,317.96z"/>
	</g>
</g>
</svg>
