<?xml version="1.0" encoding="utf-8"?>
<!-- Generator: Adobe Illustrator 26.1.0, SVG Export Plug-In . SVG Version: 6.00 Build 0)  -->
<svg version="1.1" id="Слой_1" xmlns="http://www.w3.org/2000/svg" xmlns:xlink="http://www.w3.org/1999/xlink" x="0px" y="0px"
	 viewBox="0 0 800 800" style="enable-background:new 0 0 800 800;" xml:space="preserve">
<style type="text/css">
	.st0{fill:#FFFFFF;stroke:#000000;stroke-width:22;stroke-miterlimit:10;}
	.st1{stroke:#000000;stroke-miterlimit:10;}
	.st2{fill:#FFFFFF;stroke:#000000;stroke-width:5;stroke-miterlimit:10;}
</style>
<g>
	<circle class="st0" cx="399.72" cy="400.37" r="387.72"/>
	<circle class="st1" cx="399.72" cy="400.37" r="336.54"/>
</g>
<g>
	<path class="st2" d="M509.03,650.06h-14.01c-12.97,0-23.49-9.52-23.49-21.27c1.26-35.61,2.52-71.22,3.78-106.83
		c17.51,0,35.01,0,52.52,0c1.56,35.61,3.13,71.22,4.69,106.83C532.52,640.54,522,650.06,509.03,650.06z"/>
	<path class="st2" d="M539.3,502.25h-93.05c1.84-51.45,8.32-118.44,26.98-190.16c17.98-69.12,39.46-112.58,45.4-124.32
		c7.87-15.54,15.19-28.13,20.67-37.09C539.3,267.87,539.3,385.06,539.3,502.25z"/>
</g>
<g>
	<path class="st2" d="M306.67,650.06c-27.87,0-27.87-22.38-27.87-49.98c1.15-83.67,2.3-167.35,3.45-251.02c16,0,32,0,48,0l0,0
		c-0.45,126.19,4.29,215.31,4.29,251.02C334.54,627.68,334.54,650.06,306.67,650.06z"/>
	<g>
		<path class="st2" d="M306.67,150.68c5.2,32.45,10.4,64.91,15.61,97.36c2.7,16.86,5.41,33.73,8.11,50.59
			c-7.91-8.42-15.81-16.85-23.72-25.27l-23.72,25.27C290.86,249.31,298.76,200,306.67,150.68z"/>
		<g>
			<path class="st2" d="M282.16,321.86c13.05,7.23,33.78,11.35,40.33-0.06c7.09-12.36-4.7-39.07-15.83-50.76
				c-4.96-5.22-10.4-8.08-10.91-8.34c-8.56-4.43-15.54-3.01-17.78-3.94c-12.28-5.11-24.47-28.99-26.08-108.08
				c-5.46,13.52-20.34,54.89-9.77,102.76C244.76,265.31,253.77,306.14,282.16,321.86z"/>
			<path class="st2" d="M331.17,321.86c-13.32,7.38-34.07,10.99-40.33-0.06c-7.85-13.86,8.91-45.68,20.14-54.77
				c3.17-2.56,6.6-4.33,6.6-4.33c8.73-4.51,16.15-3.27,17.78-3.94c12.28-5.11,24.47-28.99,26.08-108.08
				c5.46,13.52,20.34,54.89,9.77,102.76C368.58,265.31,359.56,306.14,331.17,321.86z"/>
		</g>
	</g>
</g>
</svg>
